<?xml version="1.0" encoding="utf-8"?>
<!-- Generator: Adobe Illustrator 25.3.0, SVG Export Plug-In . SVG Version: 6.00 Build 0)  -->
<svg version="1.1" id="Layer_1" xmlns="http://www.w3.org/2000/svg" xmlns:xlink="http://www.w3.org/1999/xlink" x="0px" y="0px"
	 viewBox="0 0 200 200" style="enable-background:new 0 0 200 200;" xml:space="preserve">
<style type="text/css">
	.st0{fill:#FFFFFF;}
	.st1{font-family:'ArialRoundedMTBold';}
	.st2{font-size:63.1353px;}
	.st3{fill:none;stroke:#FFFFFF;stroke-width:2;stroke-miterlimit:10;}
</style>
<g>
	<g>
		<path class="st0" d="M154.6,81.98c5.94,0.7,11.86,1.64,17.75,3.04c5.87,1.44,11.75,3.13,17.37,6.46c1.4,0.86,2.77,1.85,4.06,3.14
			c1.27,1.28,2.53,2.96,3.15,5.27c0.64,2.32,0.18,5.04-0.8,6.95c-0.97,1.95-2.23,3.43-3.53,4.69c-2.62,2.48-5.44,4.2-8.28,5.75
			c-2.85,1.52-5.74,2.82-8.66,3.95c-11.68,4.51-23.65,7.22-35.66,9.35c-12.03,2.08-24.14,3.39-36.29,4.12v-17.3
			c11.69,0.71,23.43,0.86,35.13,0.27c11.68-0.64,23.4-1.87,34.65-4.74c2.81-0.72,5.56-1.59,8.22-2.63c2.63-1.05,5.22-2.29,7.33-3.88
			c1.05-0.8,1.93-1.69,2.52-2.59c0.57-0.91,0.8-1.71,0.69-2.64c-0.12-0.94-0.67-2.07-1.52-3.11c-0.83-1.05-1.89-2.02-3.03-2.91
			c-4.64-3.54-10.25-5.97-15.84-8.05C166.21,85.04,160.43,83.39,154.6,81.98z"/>
		<polygon class="st0" points="83.28,125.66 93.83,117.73 104.38,109.79 104.38,125.66 104.38,141.53 93.83,133.59 		"/>
		<g>
			<g>
				<path class="st0" d="M78.48,125.66l3.31-2.49l6.93-5.21c-6.72,0.11-13.44,0.04-20.14-0.3c-11.68-0.64-23.4-1.87-34.65-4.74
					c-2.81-0.72-5.56-1.59-8.22-2.63c-2.63-1.05-5.22-2.29-7.33-3.88c-1.05-0.8-1.93-1.69-2.52-2.59c-0.57-0.91-0.8-1.71-0.69-2.64
					c0.12-0.94,0.67-2.07,1.52-3.11c0.83-1.05,1.89-2.02,3.03-2.91c4.64-3.54,10.25-5.97,15.84-8.05
					c5.63-2.06,11.41-3.71,17.25-5.12c-5.94,0.7-11.86,1.64-17.75,3.04c-5.88,1.44-11.75,3.13-17.37,6.46
					c-1.4,0.86-2.77,1.85-4.06,3.14c-1.27,1.28-2.53,2.96-3.15,5.27c-0.64,2.32-0.18,5.04,0.8,6.95c0.97,1.95,2.23,3.43,3.53,4.69
					c2.62,2.48,5.44,4.2,8.28,5.75c2.85,1.52,5.74,2.82,8.66,3.95c11.68,4.51,23.65,7.22,35.66,9.35c7.12,1.23,14.28,2.16,21.46,2.9
					l-7.08-5.32L78.48,125.66z"/>
				<path class="st0" d="M103.7,117.4c-3.34,0.2-6.69,0.35-10.03,0.45l-10.38,7.81l10.55,7.93l0.56,0.42
					c3.1,0.27,6.2,0.49,9.31,0.68V117.4z"/>
			</g>
		</g>
	</g>
	<g>
		<text transform="matrix(0.9315 0 0 1 47.5029 103.5488)" class="st0 st1 st2">360</text>
	</g>
	<circle class="st3" cx="157.55" cy="62.46" r="4.43"/>
</g>
</svg>
