<?xml version="1.0" encoding="utf-8"?>
<!-- Generator: Adobe Illustrator 25.3.0, SVG Export Plug-In . SVG Version: 6.00 Build 0)  -->
<svg version="1.1" id="Layer_1" xmlns="http://www.w3.org/2000/svg" xmlns:xlink="http://www.w3.org/1999/xlink" x="0px" y="0px"
	 viewBox="0 0 200 200" style="enable-background:new 0 0 200 200;" xml:space="preserve">
<style type="text/css">
	.st0{fill:#FFFFFF;}
</style>
<g>
	<path class="st0" d="M196.04,104.19c-2,2.92-3.8,6.02-6.04,8.74c-12.1,14.72-26.25,27-43.35,35.65
		c-11.67,5.91-23.97,9.67-37.03,10.91c-25.37,2.41-48.31-4.33-69.32-18.34c-13.64-9.1-25.01-20.57-34.93-33.55
		c-2.45-3.2-2.45-6.67-0.02-9.86C16.8,82.77,30.16,69.89,46.5,60.31C60,52.38,74.47,47.34,90.13,45.86
		c22.79-2.15,43.84,3.15,63.43,14.73c16.19,9.58,29.42,22.42,40.75,37.32c0.74,0.97,1.17,2.18,1.74,3.28
		C196.04,102.18,196.04,103.19,196.04,104.19z M100.21,143.11c22.66-0.34,40.28-18.61,40.04-41.52
		c-0.23-21.57-18.93-39.65-40.68-39.34c-22.89,0.33-40.43,18.44-40.21,41.51C59.57,125.42,78.28,143.44,100.21,143.11z"/>
	<path class="st0" d="M121.6,102.7c-0.08,12.08-10.05,21.87-22.17,21.76c-11.81-0.11-21.46-9.99-21.39-21.92
		c0.06-12.01,10.1-21.76,22.28-21.65C112.02,81,121.67,90.89,121.6,102.7z"/>
</g>
</svg>
