<?xml version="1.0" encoding="utf-8"?>
<!-- Generator: Adobe Illustrator 25.3.0, SVG Export Plug-In . SVG Version: 6.00 Build 0)  -->
<svg version="1.1" id="Layer_1" xmlns="http://www.w3.org/2000/svg" xmlns:xlink="http://www.w3.org/1999/xlink" x="0px" y="0px"
	 viewBox="0 0 200 200" style="enable-background:new 0 0 200 200;" xml:space="preserve">
<style type="text/css">
	.st0{fill:#FEFEFE;}
</style>
<g>
	<g>
		<path class="st0" d="M21.63,161.94c0-1.36,0-2.73,0-4.09c0.1-0.23,0.23-0.46,0.28-0.7c1.32-7.12,6.57-12.69,13.62-13.91
			c3.07-0.53,6.26-0.32,9.4-0.43c3.82-0.14,7.12-2.7,8.01-6.38c0.28-1.15,0.32-2.39,0.32-3.59c0.02-24.74,0.01-49.49,0.01-74.23
			c0-0.65,0-1.3,0-1.92c22.87,0,45.46,0,68.4,0c-2.32,2.29-4.4,4.35-6.48,6.4c-1.7,1.67-2.85,3.67-3.16,6.02
			c-0.57,4.35-0.97,8.72-1.47,13.31c-0.27,0-0.89,0-1.5,0c-15.31,0-30.61,0-45.92,0.01c-0.73,0-1.49,0.02-2.17,0.23
			c-1.36,0.43-2.02,1.47-1.91,2.89c0.1,1.35,0.86,2.24,2.19,2.52c0.66,0.14,1.35,0.12,2.03,0.12c2.34,0.01,4.68,0.01,7.21,0.01
			c0,0.86,0,1.53,0,2.19c0,24.64,0,49.28,0.01,73.92c0,0.73-0.01,1.48,0.14,2.19c0.3,1.42,1.29,2.15,2.7,2.19
			c1.33,0.03,2.34-0.64,2.72-1.95c0.2-0.69,0.22-1.45,0.22-2.17c0.01-12.32,0.01-24.64,0.01-36.96c0-0.62,0-1.23,0-1.91
			c10.6,0,21.04,0,31.49,0c0,7.67,0,15.2,0,22.9c-0.65,0-1.22,0-1.79,0c-5.61,0-11.22,0-16.83,0c-0.52,0-1.05-0.01-1.57,0.05
			c-1.57,0.17-2.67,1.3-2.71,2.76c-0.04,1.43,1.05,2.69,2.56,2.92c0.51,0.08,1.05,0.05,1.57,0.05c18.4,0,36.8,0,55.2,0
			c4.66,0,6.8-2.15,6.8-6.85c0-13.63,0-27.26,0-40.89c0-0.52,0.01-1.05-0.06-1.57c-0.19-1.44-1.11-2.27-2.49-2.43
			c-1.39-0.16-2.46,0.49-2.95,1.84c-0.21,0.57-0.24,1.23-0.24,1.85c-0.02,3.93-0.01,7.86-0.01,11.79c0,0.55,0,1.1,0,1.59
			c-23.14,0-46.02,0-68.87,0c0-10.53,0-20.94,0-31.49c0.72,0,1.34,0,1.96,0c9.86,0,19.71-0.04,29.57,0.01
			c6.82,0.04,13.61-0.09,20.38-1.05c3.21-0.46,5.88-1.62,8.16-3.92c8.53-8.59,17.1-17.15,25.7-25.68c0.55-0.55,1.5-0.95,2.28-0.96
			c4.66-0.09,9.33-0.04,14-0.04c3.46,0,4.23,0.78,4.23,4.26c0,37.43,0,74.86,0,112.29c0,3.45-0.79,4.24-4.26,4.24
			c-42.46,0-84.92,0-127.39,0c-3.93,0-7.86,0.03-11.79-0.02c-7.36-0.1-13.75-4.53-16.41-11.37
			C22.33,164.67,22.03,163.29,21.63,161.94z"/>
		<path class="st0" d="M45.54,16.3c1.53,0.87,1.98,2.17,1.98,3.92c-0.04,37.66-0.03,75.33-0.03,112.99c0,3.02-0.88,3.91-3.96,3.88
			c-4.67-0.05-9.44-0.34-13.68,1.95c-2.9,1.56-5.49,3.72-8.22,5.61c0-37.75,0-75.49,0-113.24c0.1-0.34,0.24-0.68,0.31-1.03
			c0.97-4.8,3.41-8.7,7.6-11.2c2.19-1.3,4.78-1.94,7.19-2.87C39.67,16.3,42.6,16.3,45.54,16.3z"/>
		<path class="st0" d="M172.31,16.3c3.21,3.14,6.46,6.24,9.62,9.43c1.11,1.13,1.06,2.66-0.01,3.85c-1.36,1.51-2.84,2.91-4.18,4.27
			c-4.23-4.24-8.36-8.38-12.62-12.65c1.72-1.58,3.51-3.24,5.31-4.9C171.05,16.3,171.68,16.3,172.31,16.3z"/>
		<path class="st0" d="M164.83,46.38c-10.32,10.32-20.71,20.71-31.02,31.02c-4.03-4.02-8.17-8.15-12.23-12.21
			c10.3-10.3,20.7-20.7,31.04-31.04C156.67,38.21,160.8,42.35,164.83,46.38z"/>
		<path class="st0" d="M145.16,148.54c-10.49,0-20.85,0-31.34,0c0-7.63,0-15.19,0-22.86c10.42,0,20.82,0,31.34,0
			C145.16,133.26,145.16,140.83,145.16,148.54z"/>
		<path class="st0" d="M173.19,38.28c-1.24,1.2-2.59,2.5-3.81,3.67c-4.08-4.07-8.21-8.19-12.37-12.35c1.23-1.12,2.65-2.4,3.93-3.56
			C164.84,29.94,168.96,34.06,173.19,38.28z"/>
		<path class="st0" d="M117.64,70.32c3.67,3.67,7.3,7.3,10.94,10.95c-1.74,0.22-3.72,0.48-5.7,0.71c-1.4,0.16-2.8,0.33-4.21,0.4
			c-1.32,0.07-2.17-0.67-2.07-1.98C116.88,76.99,117.3,73.59,117.64,70.32z"/>
	</g>
</g>
</svg>
