<?xml version="1.0" encoding="utf-8"?>
<!-- Generator: Adobe Illustrator 25.3.0, SVG Export Plug-In . SVG Version: 6.00 Build 0)  -->
<svg version="1.1" id="Layer_1" xmlns="http://www.w3.org/2000/svg" xmlns:xlink="http://www.w3.org/1999/xlink" x="0px" y="0px"
	 viewBox="0 0 200 200" style="enable-background:new 0 0 200 200;" xml:space="preserve">
<style type="text/css">
	.st0{fill:none;}
	.st1{fill:#FFFFFF;}
</style>
<g>
	<g>
		<path class="st0" d="M146.96,102.14c-0.56-1.13-0.94-2.36-1.11-3.66l-5.76,0c0.11,1.26,0.34,2.49,0.71,3.66L146.96,102.14z"/>
		<path class="st0" d="M168.68,98.48c-0.17,1.3-0.55,2.53-1.11,3.66l3.67,0l0.51,4.23c1.76-2.71,2.79-5.93,2.78-9.39
			c-0.01-4.91-2.1-9.35-5.42-12.49l1.69,13.99L168.68,98.48z"/>
		<polygon class="st1" points="28.07,153.03 31.08,179.38 91.22,179.38 87.65,152.92 		"/>
		<polygon class="st1" points="76.38,66.13 18.12,65.94 27.11,146.11 86.39,146 		"/>
		<polygon class="st1" points="71.72,29.36 71.72,29.14 13.91,29.14 17.16,58.15 75.38,58.33 		"/>
		<path class="st1" d="M160.54,158.72c-1.55,2.58-3.98,2.61-5.56,0.08c-8.96-14.43-17.91-28.86-26.86-43.3
			c-2.62-4.22-4.31-8.68-5-13.35l-33.53,0.01l9.8,77.23h81.16l-5.42-44.96C170.27,142.52,165.4,150.61,160.54,158.72z"/>
		<path class="st1" d="M89.2,98.5l33.6-0.01c-0.06-1.69-0.02-3.4,0.17-5.14c0.93-8.51,4.57-15.73,10.84-21.6
			c4.6-4.31,10.02-7.12,16.17-8.47c1.77-0.39,3.59-0.54,5.38-0.81c1.28,0,2.56,0,3.84,0c0.98,0.13,1.96,0.23,2.93,0.39
			c1.55,0.25,3.05,0.59,4.5,0.99l-4.19-34.71h-82.1L89.2,99.1V98.5z"/>
		<path class="st0" d="M168.68,98.48l-22.83,0c0.17,1.3,0.55,2.53,1.11,3.66l20.6,0C168.13,101.01,168.51,99.78,168.68,98.48z"/>
		<path class="st1" d="M157.22,108.52c4.54,0.02,8.46-2.58,10.35-6.38l-20.6,0C148.84,105.91,152.71,108.5,157.22,108.52z"/>
		<path class="st1" d="M168.78,97.07c0.03-6.36-5.09-11.56-11.42-11.6c-6.39-0.04-11.6,5.12-11.61,11.51c0,0.51,0.04,1.01,0.11,1.51
			l22.83,0C168.74,98.02,168.78,97.55,168.78,97.07z"/>
		<path class="st1" d="M173.01,116.86l-1.27-10.49c-3.07,4.73-8.4,7.87-14.45,7.88c-7.73,0.01-14.29-5.08-16.49-12.11l-6.6,0
			l-5.26,0c0.67,3.54,2,6.99,4.07,10.32c8.04,12.97,16.09,25.94,24.14,38.91c0.16,0.27,0.34,0.52,0.55,0.85
			c0.26-0.41,0.46-0.73,0.66-1.06c5.21-8.7,10.42-17.4,15.63-26.1L173.01,116.86z"/>
		<path class="st1" d="M183.93,86.3c-2.97-7.52-8.33-12.89-15.81-15.94c-0.25-0.1-0.5-0.17-0.75-0.26
			c-7.85-2.98-15.68-2.56-23.24,1.32c-7.19,3.69-12.07,9.51-14.4,17.24c-1.01,3.34-1.4,6.62-1.24,9.83l5.23,0l6.37,0
			c-0.04-0.48-0.08-0.97-0.08-1.47c-0.02-9.48,7.74-17.27,17.24-17.29c4.58-0.01,8.75,1.81,11.86,4.75
			c3.32,3.15,5.41,7.58,5.42,12.49c0.01,3.46-1.02,6.68-2.78,9.39l1.27,10.49l0.99,8.21c2.53-4.23,5.06-8.45,7.59-12.68
			C186.57,104.07,187.5,95.34,183.93,86.3z"/>
	</g>
	<path class="st1" d="M157.24,108.52c-6.62-0.03-11.93-5.37-11.93-11.99c0.01-6.64,5.42-12,12.07-11.96
		c6.59,0.04,11.91,5.45,11.87,12.06C169.23,103.23,163.86,108.54,157.24,108.52z"/>
</g>
<path class="st1" d="M161.97,68.6c0,0,10.12,1.59,14.75,7.11"/>
<path class="st1" d="M128.46,97.1c0,0,0.35,4.99,0.85,6.75c-0.05-0.18,11.68-1.12,11.68-1.12s-0.7-4.16-0.96-5.14
	C139.77,96.61,128.46,97.1,128.46,97.1z"/>
</svg>
