<?xml version="1.0" encoding="utf-8"?>
<!-- Generator: Adobe Illustrator 25.3.0, SVG Export Plug-In . SVG Version: 6.00 Build 0)  -->
<svg version="1.1" id="Layer_1" xmlns="http://www.w3.org/2000/svg" xmlns:xlink="http://www.w3.org/1999/xlink" x="0px" y="0px"
	 viewBox="0 0 200 200" style="enable-background:new 0 0 200 200;" xml:space="preserve">
<style type="text/css">
	.st0{fill:#FFFFFF;}
</style>
<g>
	<path class="st0" d="M83.24,49.38c18.69,0,37.39,0,56.08,0c5.9,0,9.29,3.39,9.29,9.31c0.01,28.1,0.01,56.19,0,84.29
		c0,6.01-3.4,9.4-9.39,9.4c-37.33,0-74.67,0-112,0c-6.07,0-9.41-3.31-9.41-9.34c-0.01-28.1-0.01-56.19,0-84.29
		c0-6.09,3.28-9.37,9.35-9.37C45.85,49.38,64.55,49.38,83.24,49.38z M28.95,135.53c36.3,0,72.35,0,108.52,0
		c0-3.24-0.04-6.33,0.02-9.42c0.02-1.12-0.32-1.92-1.12-2.71c-8.56-8.51-17.08-17.05-25.61-25.58c-0.34-0.34-0.7-0.66-1.18-1.1
		c-5.09,5.11-10.13,10.16-15.29,15.34c-8.86-8.86-17.61-17.62-26.33-26.35c-0.17,0.08-0.28,0.11-0.36,0.18
		c-12.69,12.68-25.37,25.35-38.05,38.05c-0.28,0.28-0.57,0.72-0.58,1.09C28.94,128.49,28.95,131.96,28.95,135.53z"/>
	<path class="st0" d="M156.98,41.05c-39.09,0-77.88,0-116.63,0c-1.51-5.65,2.17-10.82,7.83-11.16c0.43-0.03,0.87-0.02,1.3-0.02
		c36.41,0,72.82,0,109.22,0c4.71,0,8,2.2,9.02,6.19c0.29,1.14,0.3,2.37,0.31,3.55c0.02,27.77-0.09,55.54,0.09,83.3
		c0.04,6.5-4.04,10.82-11.15,9.85C156.98,102.29,156.98,71.78,156.98,41.05z"/>
</g>
</svg>
