<?xml version="1.0" encoding="utf-8"?>
<!-- Generator: Adobe Illustrator 25.3.0, SVG Export Plug-In . SVG Version: 6.00 Build 0)  -->
<svg version="1.1" id="Layer_1" xmlns="http://www.w3.org/2000/svg" xmlns:xlink="http://www.w3.org/1999/xlink" x="0px" y="0px"
	 viewBox="0 0 200 200" style="enable-background:new 0 0 200 200;" xml:space="preserve">
<style type="text/css">
	.st0{fill:none;stroke:#FFFFFF;stroke-miterlimit:10;}
	.st1{fill:#FFFFFF;}
</style>
<g>
	<g>
		<path class="st0" d="M110.59,74.2"/>
	</g>
	<g>
		<circle class="st1" cx="108.26" cy="22.73" r="19.13"/>
	</g>
	<g>
		<circle class="st1" cx="108.26" cy="93.31" r="35.32"/>
	</g>
	<g>
		<circle class="st1" cx="170.01" cy="55.07" r="19.13"/>
	</g>
	<g>
		<circle class="st1" cx="170.01" cy="125.18" r="19.13"/>
	</g>
	<g>
		<circle class="st1" cx="110.59" cy="163.45" r="19.13"/>
	</g>
	<g>
		<circle class="st1" cx="51.61" cy="125.18" r="19.13"/>
	</g>
	<g>
		<circle class="st1" cx="51.61" cy="57.99" r="19.13"/>
	</g>
	<g>
		<rect x="106.51" y="41.87" class="st1" width="3.49" height="35.26"/>
	</g>
	<g>
		
			<rect x="121" y="71.26" transform="matrix(0.8933 -0.4496 0.4496 0.8933 -18.0539 69.9797)" class="st1" width="34.66" height="3.49"/>
	</g>
	<g>
		
			<rect x="138.23" y="93.85" transform="matrix(0.5548 -0.832 0.832 0.5548 -28.3482 164.9704)" class="st1" width="3.49" height="30.24"/>
	</g>
	<g>
		<rect x="106.51" y="112.23" class="st1" width="3.49" height="32.09"/>
	</g>
	<g>
		
			<rect x="64.26" y="106.67" transform="matrix(0.7946 -0.6072 0.6072 0.7946 -49.7772 69.6989)" class="st1" width="27.71" height="3.49"/>
	</g>
	<g>
		
			<rect x="77.53" y="59.16" transform="matrix(0.4803 -0.8771 0.8771 0.4803 -22.8638 107.4944)" class="st1" width="3.49" height="27.76"/>
	</g>
</g>
</svg>
