<?xml version="1.0" encoding="utf-8"?>
<!-- Generator: Adobe Illustrator 25.3.0, SVG Export Plug-In . SVG Version: 6.00 Build 0)  -->
<svg version="1.1" id="Layer_1" xmlns="http://www.w3.org/2000/svg" xmlns:xlink="http://www.w3.org/1999/xlink" x="0px" y="0px"
	 viewBox="0 0 200 200" style="enable-background:new 0 0 200 200;" xml:space="preserve">
<style type="text/css">
	.st0{fill:#FFFFFF;}
</style>
<g>
	<path class="st0" d="M13.4,168.48c2.13-5.93,4.27-11.85,6.37-17.79c4.17-11.79,8.31-23.58,12.46-35.37
		c0.17-0.49,0.38-0.96,0.67-1.67c12.4,18.43,24.66,36.66,37.1,55.15c-19.09,0-37.85,0-56.61,0C13.4,168.7,13.4,168.59,13.4,168.48z"
		/>
	<path class="st0" d="M94.87,123.04c-3.72-4.29-7.45-8.42-11-12.7C75.08,99.74,66.9,88.71,60.62,76.4
		c-3.24-6.36-6.08-12.91-6.74-20.09c-1.44-15.74,4.06-28.59,16.97-37.85c20.24-14.53,49.19-7.81,60.75,14.05
		c6.1,11.53,6.27,23.45,1.49,35.52c-3.18,8.03-7.45,15.46-12.2,22.64C114.53,100.3,101.97,115.99,94.87,123.04z M94.71,68.25
		c11.47,0.03,20.28-8.68,20.31-20.07c0.03-11.36-8.75-20.11-20.24-20.17c-10.79-0.06-19.88,9.13-19.89,20.1
		C74.87,59.11,83.83,68.22,94.71,68.25z"/>
	<path class="st0" d="M65.46,144.91c4.33-1.45,8.44-2.83,12.55-4.21c5.38-1.81,10.74-3.63,16.14-5.39c0.77-0.25,1.69-0.35,2.47-0.19
		c18.18,3.49,36.34,7.03,54.51,10.56c5.73,1.11,11.45,2.21,17.17,3.38c0.57,0.12,1.34,0.57,1.52,1.05
		c2.22,6.02,4.35,12.07,6.5,18.11c0.05,0.14,0.04,0.3,0.08,0.59c-0.56,0-1.08,0-1.6,0c-30.54,0-61.07-0.01-91.61,0.03
		c-1.19,0-1.9-0.32-2.57-1.34C75.66,160.02,70.63,152.59,65.46,144.91z"/>
	<path class="st0" d="M104.46,126.89c3.82-4.54,7.43-8.84,11.04-13.15c0.68-0.81,1.51-1.55,2.02-2.46c1.49-2.66,3.69-3.15,6.6-3.1
		c9.76,0.19,19.53,0.07,29.3,0.07c0.79,0,1.46-0.11,1.84,0.97c3.4,9.65,6.86,19.26,10.31,28.89c0.05,0.14,0.03,0.29,0.06,0.63
		C145.28,134.8,125.02,130.87,104.46,126.89z"/>
	<path class="st0" d="M41.01,108.26c9.52,0,18.86-0.01,28.2,0.02c0.4,0,0.92,0.27,1.19,0.58c5.18,6.11,10.33,12.25,15.48,18.39
		c0.09,0.11,0.13,0.27,0.28,0.58c-3.23,1.1-6.41,2.2-9.6,3.27c-5.12,1.73-10.25,3.43-15.37,5.17c-0.74,0.25-1.28,0.43-1.86-0.44
		c-6-9-12.05-17.97-18.08-26.96C41.16,108.76,41.13,108.6,41.01,108.26z"/>
	<path class="st0" d="M105.51,48.13c0,5.77-4.62,10.49-10.33,10.55c-6.09,0.06-10.74-4.54-10.71-10.6
		c0.02-5.95,4.69-10.54,10.69-10.5C100.83,37.62,105.51,42.39,105.51,48.13z"/>
</g>
</svg>
