<?xml version="1.0" encoding="UTF-8"?>
<svg id="Layer_1" xmlns="http://www.w3.org/2000/svg" version="1.1" xmlns:xlink="http://www.w3.org/1999/xlink" viewBox="0 0 545.68 484.77">
  <!-- Generator: Adobe Illustrator 30.2.1, SVG Export Plug-In . SVG Version: 2.1.1 Build 1)  -->
  <defs>
    <style>
      .st0 {
        fill: #fff;
      }

      .st1 {
        fill: none;
        stroke: #fff;
        stroke-miterlimit: 10;
        stroke-width: 3px;
      }

      .st2 {
        fill: url(#linear-gradient);
      }
    </style>
    <linearGradient id="linear-gradient" x1="0" y1="64.2" x2="545.68" y2="64.2" gradientUnits="userSpaceOnUse">
      <stop offset="0" stop-color="#2e7a80"/>
      <stop offset="1" stop-color="#003a41"/>
    </linearGradient>
  </defs>
  <line class="st1" x1="272.84" y1="128.4" x2="272.84" y2="473.44"/>
  <circle class="st0" cx="272.84" cy="473.44" r="11.33"/>
  <rect class="st2" x="0" y="0" width="545.68" height="128.4" rx="64.2" ry="64.2"/>
  <g>
    <path class="st0" d="M86.19,50.38h-.65c-.58-2.9-1.94-5.16-5.36-5.16h-8.84v41.7c0,.32.06.65.19.9.26.52.65.97,1.48.97v.65h-9.29v-.65c.84,0,1.23-.45,1.42-.97.13-.26.19-.58.19-.9v-41.7h-8.78c-3.42,0-4.84,2.26-5.36,5.16h-.71l.65-6.2h34.47l.58,6.2Z"/>
    <path class="st0" d="M125.04,44.9c-.77,0-1.23.45-1.42.9-.13.26-.19.58-.19.9v40.21c0,.32.06.65.19.9.19.52.65.97,1.42.97v.65h-9.29v-.65c.84,0,1.29-.45,1.48-.97.13-.26.19-.58.19-.9v-19.56h-19.94v19.56c0,.32.06.65.19.9.19.52.65.97,1.42.97v.65h-9.29v-.65c.84,0,1.29-.45,1.48-.97.13-.26.19-.58.19-.9v-40.21c0-.32-.06-.65-.19-.9-.19-.45-.65-.9-1.48-.9v-.71h9.29v.71c-.77,0-1.23.45-1.42.9-.13.26-.19.58-.19.9v19.62h19.94v-19.62c0-.32-.06-.65-.19-.9-.19-.45-.65-.9-1.48-.9v-.71h9.29v.71Z"/>
    <path class="st0" d="M168.35,44.25v.65c-2.07,0-3.1.84-3.61,1.68-.32.52-.45,1.1-.52,1.74v24.4c0,11.1-3.55,17.43-15.17,17.43-8.52,0-16.14-3.87-16.14-17.1v-26.33c0-.32-.06-.65-.19-.9-.19-.45-.65-.9-1.48-.9v-.71h9.29v.71c-.77,0-1.23.45-1.42.9-.13.26-.19.58-.19.9v28.46c0,5.87,1.55,13.94,11.62,13.94h.32c2.97,0,5.87-1.03,8.26-3.03,3.16-2.9,4.07-7.68,4.07-13.36v-24.4c-.06-.65-.19-1.23-.52-1.74-.52-.84-1.55-1.68-3.61-1.68v-.65h9.29Z"/>
    <path class="st0" d="M198.62,88.4c3.42,0,4.84-2.26,5.36-5.1h.71l-.65,6.13h-30.79v-.65c.84,0,1.29-.45,1.48-.97.13-.26.19-.58.19-.9v-40.21c0-.32-.06-.65-.19-.9-.19-.45-.65-.9-1.48-.9v-.65h30.79l.65,6.13h-.71c-.52-2.9-1.94-5.16-5.36-5.16h-17.69v20.27h13.88c.65-.06,1.23-.19,1.74-.52.84-.52,1.68-1.55,1.68-3.61h.65v9.29h-.65c0-2.07-.84-3.1-1.68-3.61-.52-.32-1.1-.45-1.74-.52h-13.88v21.88h17.69ZM179.9,40.64h-.39l8.91-8.33,9.04,8.33h-.45l-8.58-4.26-8.52,4.26ZM195.46,33.73h-.52c2.65-3.42,4.58-6.71,5.81-9.94h6.33c-3.49,3.68-6.97,6.97-11.62,9.94Z"/>
    <path class="st0" d="M269.16,44.19v.71c-2.07-.06-3.94,1.16-4.71,3.03l-17.23,42.21h-.52l-18.07-43.44c-.71-1.48-1.29-1.81-2.32-1.81v-.71h10v.71c-1.48,0-1.87.77-1.42,1.74l14.59,35.5,13.94-34.34c.58-1.48-.19-2.9-2.52-2.9v-.71h8.26Z"/>
    <path class="st0" d="M282,44.9c-.77,0-1.23.45-1.42.9-.13.26-.19.58-.19.9v40.21c0,.32.06.65.19.9.19.52.65.97,1.42.97v.65h-9.29v-.65c.84,0,1.29-.45,1.48-.97.13-.26.19-.58.19-.9v-40.21c0-.32-.06-.65-.19-.9-.19-.45-.65-.9-1.48-.9v-.71h9.29v.71Z"/>
    <path class="st0" d="M313.89,88.4c3.42,0,4.84-2.26,5.36-5.1h.71l-.65,6.13h-30.79v-.65c.84,0,1.29-.45,1.48-.97.13-.26.19-.58.19-.9v-40.21c0-.32-.06-.65-.19-.9-.19-.45-.65-.9-1.48-.9v-.65h30.79l.65,6.13h-.71c-.52-2.9-1.94-5.16-5.36-5.16h-17.69v20.27h13.88c.65-.06,1.23-.19,1.74-.52.84-.52,1.68-1.55,1.68-3.61h.65v9.29h-.65c0-2.07-.84-3.1-1.68-3.61-.52-.32-1.1-.45-1.74-.52h-13.88v21.88h17.69ZM295.17,40.64h-.39l8.91-8.33,9.04,8.33h-.45l-8.58-4.26-8.52,4.26ZM307.5,97.95c0,2.07-1.61,3.74-3.68,3.74-1.1,0-2-.39-2.71-1.1-1.1-1.1-1.42-2.65-.84-4.13.71-1.36,2-2.32,3.49-2.32,2.07.06,3.74,1.74,3.74,3.81Z"/>
    <path class="st0" d="M358.23,50.38h-.65c-.58-2.9-1.94-5.16-5.36-5.16h-8.84v41.7c0,.32.06.65.19.9.26.52.65.97,1.48.97v.65h-9.29v-.65c.84,0,1.23-.45,1.42-.97.13-.26.19-.58.19-.9v-41.7h-8.78c-3.42,0-4.84,2.26-5.36,5.16h-.71l.65-6.2h34.47l.58,6.2Z"/>
    <path class="st0" d="M415.8,44.19v.71h-.45c-1.87,0-3.87,1.03-4.91,3.1l-10.97,19.1v19.94c0,.45.13.84.45,1.23.32.32.77.52,1.23.52v.65h-9.29v-.65c.97,0,1.61-.77,1.61-1.74v-19.11l-12.46-21.56c-.71-.97-1.74-1.48-2.78-1.48h-.26v-.71h11.42v.71c-1.48,0-1.74.39-1.74.84,0,.19.13.58.32.97l10.91,19.17,10.2-17.88c.39-.65.52-1.23.52-1.74,0-.13,0-.45-.13-.77-.06-.39-.71-.58-1.87-.58v-.71h8.2Z"/>
    <path class="st0" d="M444.78,88.4c3.42,0,4.84-2.26,5.36-5.1h.71l-.65,6.13h-30.79v-.65c.84,0,1.29-.45,1.48-.97.13-.26.19-.58.19-.9v-40.21c0-.32-.06-.65-.19-.9-.19-.45-.65-.9-1.48-.9v-.65h30.79l.65,6.13h-.71c-.52-2.9-1.94-5.16-5.36-5.16h-17.69v20.27h13.88c.65-.06,1.23-.19,1.74-.52.84-.52,1.68-1.55,1.68-3.61h.65v9.29h-.65c0-2.07-.84-3.1-1.68-3.61-.52-.32-1.1-.45-1.74-.52h-13.88v21.88h17.69ZM426.06,40.64h-.39l8.91-8.33,9.04,8.33h-.45l-8.58-4.26-8.52,4.26Z"/>
    <path class="st0" d="M493.89,44.19v.71c-2.07,0-3.1.84-3.61,1.68-.32.45-.45,1.03-.52,1.68v41.83h-.71l-29.17-41.95v37.18c.06.65.19,1.23.52,1.68.52.97,1.55,1.74,3.61,1.74v.71h-9.29v-.71c2.07,0,3.1-.84,3.62-1.68.32-.45.45-1.03.52-1.68v-37.05c-.06-.65-.19-1.23-.52-1.74-.52-.84-1.55-1.68-3.62-1.68v-.65h9.49c.45,0,.84.19,1.1.52l23.43,33.5v-30.01c-.06-.65-.19-1.23-.52-1.68-.52-.84-1.55-1.68-3.61-1.68v-.71h9.29Z"/>
  </g>
</svg>